<?xml version="1.0" encoding="UTF-8" standalone="no"?>
<svg
   id="Layer_1"
   style="enable-background:new 0 0 468.509 468.509;"
   version="1.1"
   viewBox="0 0 468.509 468.509"
   xml:space="preserve"
   sodipodi:docname="sign_up.svg"
   inkscape:version="1.4 (86a8ad7, 2024-10-11)"
   xmlns:inkscape="http://www.inkscape.org/namespaces/inkscape"
   xmlns:sodipodi="http://sodipodi.sourceforge.net/DTD/sodipodi-0.dtd"
   xmlns="http://www.w3.org/2000/svg"
   xmlns:svg="http://www.w3.org/2000/svg"><defs
     id="defs244" /><sodipodi:namedview
     id="namedview244"
     pagecolor="#ffffff"
     bordercolor="#000000"
     borderopacity="0.25"
     inkscape:showpageshadow="2"
     inkscape:pageopacity="0.0"
     inkscape:pagecheckerboard="0"
     inkscape:deskcolor="#d1d1d1"
     inkscape:zoom="1.6499149"
     inkscape:cx="392.14144"
     inkscape:cy="222.13267"
     inkscape:window-width="1920"
     inkscape:window-height="991"
     inkscape:window-x="-9"
     inkscape:window-y="-9"
     inkscape:window-maximized="1"
     inkscape:current-layer="g229"
     showguides="true"><sodipodi:guide
       position="417.59729,-3.0304688"
       orientation="0,-1"
       id="guide1"
       inkscape:locked="false" /></sodipodi:namedview><g
     id="g229"><g
       id="g74"
       transform="matrix(0.67443806,0,0,0.67443806,86.04448,21.023837)"><g
         id="g2"><g
           id="g1"><path
             d="m 155.421,348.121 -3.459,20.508 -40.019,-1.975 0.002,0.02 10.067,-70.423 c 1.49,-10.42 8.713,-19.115 18.681,-22.484 l 51.027,-17.249 c 7.362,-2.665 72.726,-4.441 72.726,-4.441 l 63.664,21.971 c 9.824,3.39 16.949,11.965 18.487,22.248 l 10.473,70.022 -39.488,2.311 -3.393,-21.665 -17.688,28.305 -0.004,91.552 H 172.503 v -91.457 l -17.138,-27.253"
             style="fill:#915efd"
             id="path1" /></g></g><g
         id="g4"><g
           id="g3"><path
             d="m 185.903,413.917 v -16.721 c 0,-9.142 -5.07,-17.528 -13.154,-21.801 -0.094,-0.05 -0.143,-0.077 -0.143,-0.077 v 91.504 H 286.69 v 0 c 0,-9.053 -7.341,-16.392 -16.396,-16.392 h -47.869 c -20.171,-0.001 -36.522,-16.348 -36.522,-36.513 z"
             style="fill:#7e4ce8"
             id="path2" /></g></g><g
         style="opacity:0.5"
         id="g6"><g
           id="g5"><path
             d="m 341.27,337.579 c -0.73,0 -1.37,-0.534 -1.481,-1.278 l -4.605,-30.849 c -1.464,-9.771 -8.179,-17.841 -17.526,-21.063 l -13.08,-4.508 c -0.783,-0.27 -1.199,-1.124 -0.929,-1.907 0.27,-0.783 1.121,-1.201 1.907,-0.929 l 13.08,4.508 c 10.407,3.587 17.885,12.574 19.515,23.455 l 4.605,30.85 c 0.122,0.819 -0.442,1.583 -1.262,1.705 -0.076,0.011 -0.15,0.016 -0.224,0.016 z"
             style="fill:#ffffff"
             id="path4" /></g></g><g
         id="g8"><g
           id="g7"><path
             d="m 149.557,282.938 51.434,-17.364 c 7.375,-2.666 12.288,-9.664 12.288,-17.501 v -55.64 h 0.035 51.402 v -9.128 h -60.532 -0.035 v 55.64 c 0,7.837 -4.913,14.835 -12.288,17.501 l -51.124,17.26 c -9.981,3.37 -17.215,12.068 -18.707,22.493 l -10.085,70.459 10.364,0.508 8.897,-62.162 c 1.463,-10.228 8.56,-18.761 18.351,-22.066 z"
             style="fill:#7e4ce8"
             id="path6" /></g></g><g
         style="opacity:0.5"
         id="g10"><g
           id="g9"><circle
             cx="234.509"
             cy="319.755"
             r="6"
             style="fill:#ffffff"
             id="circle8" /></g></g><g
         id="g19"><g
           id="g12"><g
             id="g11"><path
               d="m 198.574,400.293 -52.611,4.651 5.999,-36.315 -40.019,-1.975 -7.565,53.55 c -1.654,11.705 7.882,21.965 19.67,21.163 l 93.12,-6.335 c 9.756,-0.664 17.331,-8.775 17.331,-18.559 v -52.024 c 0,-6.95 -7.327,-11.409 -13.532,-8.286 -25.618,12.89 -22.393,44.13 -22.393,44.13 z"
               style="fill:#ffc5b7"
               id="path10" /></g></g><g
           id="g15"><g
             id="g14"><g
               id="g13"><path
                 d="m 130.361,429.416 c -8.701,-1.186 -12.094,-5.894 -13.401,-9.762 -0.756,-2.237 -0.89,-4.638 -0.559,-6.976 l 6.435,-45.499 -10.881,-0.536 -7.576,53.56 c -1.658,11.719 7.894,21.992 19.703,21.19 l 62.65,-4.257 c -0.482,-18.208 -41.71,-5.721 -56.371,-7.72 z"
                 style="fill:#ff9a8f"
                 id="path12" /></g></g></g><g
           id="g16"><path
             d="m 364.639,420.204 -7.565,-53.55 -39.494,1.971 5.996,36.37 -53.132,-4.701 c 0,0 3.224,-31.24 -22.393,-44.132 -6.205,-3.123 -13.532,1.336 -13.532,8.286 v 52.024 c 0,9.784 7.575,17.895 17.331,18.559 l 93.12,6.335 c 11.787,0.802 21.322,-9.457 19.669,-21.162 z"
             style="fill:#ffc5b7"
             id="path15" /></g><g
           id="g18"><g
             id="g17"><path
               d="m 351.312,408.604 c 0,0 3.108,18.956 -15.23,23.927 0,0 12.588,1.554 17.639,-5.904 5.185,-7.656 -2.409,-18.023 -2.409,-18.023 z"
               style="fill:#ff9a8f"
               id="path16" /></g></g></g><g
         id="g20"><line
           style="fill:#fed9c9"
           x1="157.56"
           x2="145.963"
           y1="334.599"
           y2="404.944"
           id="line19" /></g><g
         id="g36"><g
           id="g22"><g
             id="g21"><rect
               height="116.3"
               style="fill:#ffc5b7"
               width="62.645"
               x="203.186"
               y="173.189"
               id="rect20" /></g></g><g
           id="g24"><g
             id="g23"><path
               d="m 265.832,289.49 v -14.22 c -0.213,0.005 -0.429,0.015 -0.64,0.018 -28.695,0.441 -52.006,-23.163 -52.006,-51.861 v -50.238 l -10,9.184 V 289.49 Z"
               style="fill:#ff9a8f"
               id="path22" /></g></g><g
           id="g35"><g
             id="g29"><g
               id="g26"><g
                 id="g25"><path
                   d="m 206.679,307.86 27.826,-18.698 -31.313,-42.26 v -21.154 c -0.057,0.017 -0.126,0.037 -0.207,0.062 -21.986,6.641 -31.03,32.412 -17.999,51.039 z"
                   style="fill:#915efd"
                   id="path24" /></g></g><g
               id="g28"><g
                 id="g27"><path
                   d="m 184.985,276.849 21.693,31.011 22.153,-14.886 -5.612,-1.469 c -11.446,-2.995 -21.453,-9.962 -28.235,-19.657 v 0 c -10.76,-15.382 -6.458,-35.623 7.744,-45.954 -21.796,6.766 -30.722,32.4 -17.743,50.955 z"
                   style="fill:#7e4ce8"
                   id="path26" /></g></g></g><g
             id="g34"><g
               id="g31"><g
                 id="g30"><path
                   d="m 262.335,307.933 -27.826,-18.698 31.313,-42.26 v -21.154 c 0.057,0.017 0.126,0.037 0.207,0.062 21.986,6.641 31.03,32.412 18,51.039 z"
                   style="fill:#915efd"
                   id="path29" /></g></g><g
               id="g33"><g
                 id="g32"><path
                   d="m 284.028,276.922 -21.693,31.011 -22.153,-14.886 5.612,-1.469 c 11.446,-2.995 21.453,-9.962 28.235,-19.657 v 0 c 10.76,-15.382 6.458,-35.623 -7.744,-45.954 21.797,6.767 30.722,32.401 17.743,50.955 z"
                   style="fill:#7e4ce8"
                   id="path31" /></g></g></g></g></g><g
         id="g73"><g
           id="g41"><g
             id="g38"><g
               id="g37"><ellipse
                 cx="180.119"
                 cy="149.627"
                 rx="21.969999"
                 ry="22"
                 style="fill:#ffb5a6"
                 id="ellipse36" /></g></g><g
             id="g40"><g
               id="g39"><path
                 d="m 166.617,143.342 c 0,-5.327 1.892,-10.211 5.039,-14.018 -7.932,3.319 -13.507,11.158 -13.507,20.304 0,12.15 9.836,22 21.97,22 6.814,0 12.902,-3.107 16.932,-7.982 -2.605,1.09 -5.463,1.696 -8.463,1.696 -12.135,0 -21.971,-9.85 -21.971,-22 z"
                 style="fill:#ff9a8f"
                 id="path38" /></g></g></g><g
           id="g46"><g
             id="g43"><g
               id="g42"><ellipse
                 cx="289.082"
                 cy="149.627"
                 rx="21.969999"
                 ry="22"
                 style="fill:#ffb5a6"
                 id="ellipse41" /></g></g><g
             id="g45"><g
               id="g44"><path
                 d="m 302.584,143.342 c 0,-5.327 -1.892,-10.211 -5.039,-14.018 7.932,3.319 13.507,11.158 13.507,20.304 0,12.15 -9.836,22 -21.97,22 -6.814,0 -12.902,-3.107 -16.932,-7.982 2.605,1.09 5.463,1.696 8.463,1.696 12.135,0 21.971,-9.85 21.971,-22 z"
                 style="fill:#ff9a8f"
                 id="path43" /></g></g></g><g
           id="XMLID_3_"><g
             id="g47"><path
               d="m 235.036,229.264 v 0 c -31.817,0 -57.609,-25.792 -57.609,-57.609 V 96.879 c 0,-0.733 0.594,-1.327 1.327,-1.327 h 112.563 c 0.733,0 1.327,0.594 1.327,1.327 v 74.776 c 10e-4,31.816 -25.792,57.609 -57.608,57.609 z"
               style="fill:#ffc5b7"
               id="path46" /></g></g><g
           id="g50"><g
             id="g49"><g
               id="g48"><path
                 d="M 292.317,93.552 H 179.754 c -0.733,0 -1.327,0.594 -2.327,1.327 v 52.014 l 21.684,-28.866 1.245,0.879 c 27.143,19.166 60.2,28.07 92.288,25.133 v -49.16 c 1.001,-0.733 0.406,-1.327 -0.327,-1.327 z"
                 style="fill:#ffb5a6"
                 id="path47" /></g></g></g><g
           id="g66"><g
             id="g52"><g
               id="g51"><path
                 d="m 232.985,189.655 c -0.221,0 -0.442,-0.048 -0.648,-0.147 -0.521,-0.25 -0.852,-0.775 -0.852,-1.353 v -17.25 c 0,-0.829 0.671,-1.5 1.5,-1.5 0.829,0 1.5,0.671 1.5,1.5 v 14.122 l 4.26,-3.423 c 0.648,-0.52 1.591,-0.415 2.108,0.23 0.52,0.646 0.416,1.59 -0.229,2.109 l -6.7,5.382 c -0.271,0.217 -0.604,0.33 -0.939,0.33 z"
                 id="path50" /></g></g><g
             id="g54"><g
               id="g53"><path
                 d="m 234.508,209.51 c -2.978,0 -5.96,-1.055 -8.335,-3.181 l -0.435,-0.39 c -0.617,-0.553 -0.669,-1.501 -0.116,-2.118 0.552,-0.616 1.501,-0.669 2.118,-0.116 l 0.434,0.389 c 3.741,3.347 9.466,3.201 13.031,-0.337 0.589,-0.583 1.537,-0.58 2.121,0.008 0.584,0.588 0.58,1.538 -0.008,2.122 -2.427,2.409 -5.616,3.623 -8.81,3.623 z"
                 id="path52" /></g></g><g
             id="g65"><g
               id="g59"><g
                 id="g56"><g
                   id="g55"><path
                     d="m 271.942,152.847 c -0.33,0 -0.661,-0.108 -0.938,-0.331 -7.156,-5.751 -13.311,-0.298 -13.569,-0.063 -0.609,0.557 -1.558,0.515 -2.117,-0.095 -0.558,-0.609 -0.52,-1.553 0.087,-2.114 0.082,-0.076 8.281,-7.459 17.479,-0.067 0.646,0.519 0.749,1.463 0.229,2.109 -0.297,0.37 -0.732,0.561 -1.171,0.561 z"
                     id="path54" /></g></g><g
                 id="g58"><g
                   id="g57"><ellipse
                     cx="264.18301"
                     cy="163.145"
                     rx="3.7349999"
                     ry="4.1079998"
                     id="ellipse56" /></g></g></g><g
               id="g64"><g
                 id="g61"><g
                   id="g60"><path
                     d="m 212.595,152.847 c -0.33,0 -0.662,-0.108 -0.938,-0.331 -7.207,-5.792 -13.309,-0.304 -13.565,-0.067 -0.607,0.562 -1.557,0.524 -2.12,-0.085 -0.562,-0.608 -0.523,-1.558 0.085,-2.12 0.082,-0.075 8.281,-7.458 17.479,-0.067 0.646,0.519 0.749,1.463 0.23,2.109 -0.297,0.37 -0.732,0.561 -1.171,0.561 z"
                     id="path59" /></g></g><g
                 id="g63"><g
                   id="g62"><ellipse
                     cx="204.83501"
                     cy="163.145"
                     rx="3.7349999"
                     ry="4.1079998"
                     id="ellipse61" /></g></g></g></g></g><g
           id="g72"><g
             id="XMLID_109_"><g
               id="g67"><path
                 d="m 174.29,132.605 2.909,6.605 20.912,-29.183 1.245,0.879 c 27.177,19.19 60.283,28.094 93.413,25.123 v 0 0 c 19.665,-37.58 -7.576,-82.622 -49.97,-82.622 h -16.89 C 185.168,53.408 157.864,95.3 174.29,132.605 Z"
                 style="fill:#ffcf00"
                 id="path66" /></g></g><g
             style="opacity:0.5"
             id="g69"><g
               id="g68"><path
                 d="m 272.319,73.197 c 5.934,6.624 18.908,23.714 16.694,44.479 0,0 -4.292,-27.165 -21.188,-39.506 -1.506,-1.1 -1.83,-3.213 -0.723,-4.714 v 0 c 1.268,-1.718 3.793,-1.849 5.217,-0.259 z"
                 style="fill:#ffffff"
                 id="path67" /></g></g><g
             id="g71"><g
               id="g70"><path
                 d="m 235.908,63.408 h 16.89 c 13.3,0 25.107,4.435 34.444,11.679 C 277.16,62.125 261.447,53.408 242.798,53.408 h -16.89 c -40.741,0 -68.045,41.893 -51.618,79.198 l 2.909,6.605 3.99,-5.568 c -8.896,-34.74 17.218,-70.235 54.719,-70.235 z"
                 style="fill:#feac01"
                 id="path69" /></g></g></g></g></g><g
       id="g228"
       transform="translate(4.8487385,-81.21631)"
       style="fill:#ff00ff"><text
         xml:space="preserve"
         style="text-align:start;writing-mode:lr-tb;direction:ltr;text-anchor:start;white-space:pre;inline-size:186.717;fill:#ff00ff"
         x="89.095505"
         y="198.19205"
         id="text244"
         transform="matrix(2.5212427,0,0,2.5212427,-144.23543,-33.676273)"><tspan
           x="89.095505"
           y="198.19205"
           id="tspan2">Welcome to Our App</tspan></text></g></g><g
     id="g230" /><g
     id="g231" /><g
     id="g232" /><g
     id="g233" /><g
     id="g234" /><g
     id="g235" /><g
     id="g236" /><g
     id="g237" /><g
     id="g238" /><g
     id="g239" /><g
     id="g240" /><g
     id="g241" /><g
     id="g242" /><g
     id="g243" /><g
     id="g244" /></svg>
