<?xml version="1.0" encoding="UTF-8" standalone="no"?>
<!-- Generator: Adobe Illustrator 16.0.0, SVG Export Plug-In . SVG Version: 6.00 Build 0)  -->

<svg
   version="1.1"
   id="Capa_1"
   x="0px"
   y="0px"
   width="64px"
   height="64px"
   viewBox="0 0 64 64"
   style="enable-background:new 0 0 64 64;"
   xml:space="preserve"
   sodipodi:docname="email.svg"
   inkscape:version="1.4 (86a8ad7, 2024-10-11)"
   xmlns:inkscape="http://www.inkscape.org/namespaces/inkscape"
   xmlns:sodipodi="http://sodipodi.sourceforge.net/DTD/sodipodi-0.dtd"
   xmlns="http://www.w3.org/2000/svg"
   xmlns:svg="http://www.w3.org/2000/svg"><defs
   id="defs19" /><sodipodi:namedview
   id="namedview19"
   pagecolor="#ffffff"
   bordercolor="#000000"
   borderopacity="0.25"
   inkscape:showpageshadow="2"
   inkscape:pageopacity="0.0"
   inkscape:pagecheckerboard="0"
   inkscape:deskcolor="#d1d1d1"
   inkscape:zoom="12.078125"
   inkscape:cx="31.958603"
   inkscape:cy="32"
   inkscape:window-width="1920"
   inkscape:window-height="991"
   inkscape:window-x="-9"
   inkscape:window-y="-9"
   inkscape:window-maximized="1"
   inkscape:current-layer="Capa_1" />
<g
   id="g4">
	<g
   id="g3">
		<g
   id="circle_4_">
			<g
   id="g1">
				<path
   d="M32,0C14.327,0,0,14.327,0,32s14.327,32,32,32s32-14.327,32-32S49.673,0,32,0z M32,62C15.432,62,2,48.568,2,32.001      C2,15.432,15.432,2,32,2c16.568,0,30,13.432,30,30.001C62,48.568,48.568,62,32,62z"
   id="path1" />
			</g>
		</g>
		<g
   id="mail">
			<g
   id="g2">
				<path
   d="M46,21H18c-1.104,0-2,0.896-2,2v18c0,1.104,0.896,2,2,2h28c1.104,0,2-0.896,2-2V23C48,21.896,47.104,21,46,21z       M44.205,23L32,35L19.891,23H44.205z M18,41V24.006l9.589,9.589L20.061,41H18z M22.985,41l6.081-5.927l1.58,1.579      c0.781,0.781,2.047,0.781,2.829,0l1.531-1.531L41.087,41H22.985z M46,41h-1.939l-7.527-7.405L46,24.128V41z"
   id="path2" />
			</g>
		</g>
	</g>
</g>
<g
   id="g5">
</g>
<g
   id="g6">
</g>
<g
   id="g7">
</g>
<g
   id="g8">
</g>
<g
   id="g9">
</g>
<g
   id="g10">
</g>
<g
   id="g11">
</g>
<g
   id="g12">
</g>
<g
   id="g13">
</g>
<g
   id="g14">
</g>
<g
   id="g15">
</g>
<g
   id="g16">
</g>
<g
   id="g17">
</g>
<g
   id="g18">
</g>
<g
   id="g19">
</g>
<path
   style="fill:#666666;stroke-width:0.0827943"
   d="M 29.723157,61.8824 C 29.586546,61.864252 29.083571,61.808188 28.605433,61.757813 21.996418,61.061503 15.589339,57.947032 10.789875,53.0977 8.3606246,50.64321 6.7094234,48.362537 5.2559104,45.454075 2.5969476,40.133522 1.5695174,34.385973 2.2386644,28.575292 3.4651037,17.925246 10.390399,8.6615071 20.289919,4.4287253 c 2.732863,-1.1685023 6.070896,-2.00597 9.060663,-2.2731989 1.224213,-0.1094216 4.074623,-0.1094216 5.298836,0 11.831237,1.0574899 21.999022,9.0964956 25.756189,20.3637416 1.057711,3.171937 1.517617,6.045022 1.517617,9.480732 0,2.081003 -0.08391,3.117106 -0.410093,5.063783 -1.428964,8.528126 -6.688795,16.194224 -14.166778,20.647799 -3.591143,2.138735 -7.223889,3.399451 -11.579212,4.018474 -0.859898,0.122217 -5.407829,0.236852 -6.043984,0.152344 z m 16.92407,-18.959034 c 0.301484,-0.08953 0.547929,-0.240943 0.796091,-0.489104 0.654486,-0.654487 0.618778,-0.05234 0.618778,-10.434262 0,-10.381917 0.03571,-9.779775 -0.618778,-10.434262 C 46.776382,20.898803 47.978262,20.94696 32,20.94696 c -15.978262,0 -14.776382,-0.04816 -15.443318,0.618778 -0.654486,0.654487 -0.618778,0.05234 -0.618778,10.434262 0,10.383783 -0.03589,9.779596 0.619828,10.435311 0.653055,0.653056 -0.54404,0.605505 15.406542,0.611962 12.701051,0.0051 14.293655,-0.0083 14.682953,-0.123907 z"
   id="path19" /><path
   style="fill:#666666;stroke-width:0.0827943"
   d="m 18.007762,32.517734 v -8.465448 l 4.763335,4.760403 4.763336,4.760403 -3.749105,3.700801 -3.749105,3.700801 -1.014231,0.0042 -1.01423,0.0042 z"
   id="path20" /><path
   style="fill:#666666;stroke-width:0.0827943"
   d="m 25.74903,38.371467 c 1.45718,-1.433482 2.809336,-2.742058 3.004791,-2.907948 l 0.355373,-0.301617 0.969336,0.956082 c 1.045553,1.031259 1.237853,1.138096 2.050104,1.138993 0.636026,7.02e-4 1.116905,-0.287584 2.059455,-1.234638 l 0.821983,-0.825912 1.813778,1.754956 c 0.997577,0.965226 2.341527,2.26532 2.986554,2.889099 l 1.172778,1.134143 -8.941785,0.0016 -8.941785,0.0016 z"
   id="path21" /><path
   style="fill:#666666;stroke-width:0.0827943"
   d="m 25.978587,28.957309 -5.94945,-5.899094 6.033316,-0.02124 c 3.318324,-0.01168 8.728574,-0.01168 12.022777,0 l 5.989461,0.02124 -5.998981,5.899094 c -3.299439,3.244502 -6.032436,5.899095 -6.073326,5.899095 -0.04089,0 -2.7516,-2.654593 -6.023797,-5.899095 z"
   id="path22" /><path
   style="fill:#666666;stroke-width:0.0827943"
   d="m 40.401434,37.323013 c -2.047956,-2.013093 -3.732901,-3.680456 -3.744323,-3.705251 -0.01142,-0.02479 2.084309,-2.149911 4.65718,-4.72248 l 4.677947,-4.677397 v 8.382649 8.382648 h -0.933624 -0.933625 z"
   id="path23" /></svg>
